<?xml version="1.0" encoding="UTF-8"?>
<!DOCTYPE svg PUBLIC "-//W3C//DTD SVG 1.1//EN" "http://www.w3.org/Graphics/SVG/1.1/DTD/svg11.dtd">
<svg version="1.1" xmlns="http://www.w3.org/2000/svg" xmlns:xlink="http://www.w3.org/1999/xlink" x="0" y="0" width="288" height="288" viewBox="0, 0, 288, 288">
  <g id="Layer_1">
    <path d="M-0,0 L288,0 L288,288 L-0,288 z" fill="#E5E5E5"/>
  </g>
  <g id="Cloud">
    <g>
      <path d="M144.161,90.5 C173.985,90.5 198.161,114.677 198.161,144.5 C198.072,148.043 198.184,146.357 197.86,149.56 C204.957,145.968 212.578,144.854 220.439,144.5 C250.262,144.5 274.439,168.677 274.439,198.5 C274.439,228.323 250.262,252.5 220.439,252.5 L220.379,252.498 L220.379,252.5 L68.561,252.5 C38.738,252.5 14.561,228.323 14.561,198.5 C14.561,168.677 38.738,144.5 68.561,144.5 C76.052,144.697 83.67,146.004 90.44,149.338 C90.138,146.357 90.249,147.968 90.161,144.5 C90.161,114.677 114.338,90.5 144.161,90.5 z z" fill="#FFFFFF"/>
      <path d="M144.161,90.5 C173.985,90.5 198.161,114.677 198.161,144.5 C198.072,148.043 198.184,146.357 197.86,149.56 C204.957,145.968 212.578,144.854 220.439,144.5 C250.262,144.5 274.439,168.677 274.439,198.5 C274.439,228.323 250.262,252.5 220.439,252.5 L220.379,252.498 L220.379,252.5 L68.561,252.5 C38.738,252.5 14.561,228.323 14.561,198.5 C14.561,168.677 38.738,144.5 68.561,144.5 C76.052,144.697 83.67,146.004 90.44,149.338 C90.138,146.357 90.249,147.968 90.161,144.5 C90.161,114.677 114.338,90.5 144.161,90.5 z z" fill-opacity="0" stroke="#585858" stroke-width="3"/>
    </g>
  </g>
  <g id="Wrap_Hand" display="none">
    <g>
      <path d="M111.999,237.965 L180.108,169.856 L212.609,202.357 L144.5,270.466 z" fill="#988AD7"/>
      <path d="M111.999,237.965 L180.108,169.856 L212.609,202.357 L144.5,270.466 z" fill-opacity="0" stroke="#585858" stroke-width="3" stroke-linejoin="round"/>
    </g>
    <g>
      <path d="M0.5,11.033 L170.936,181.469 L144.838,207.567 L0.5,63.229 z" fill="#988AD7"/>
      <path d="M0.5,11.033 L170.936,181.469 L144.838,207.567 L0.5,63.229 z" fill-opacity="0" stroke="#585858" stroke-width="3" stroke-linejoin="round"/>
    </g>
  </g>
  <g id="Wrap_Hand_2">
    <g>
      <path d="M169.172,176.79 L205.492,213.11 L144.5,274.102 L108.18,237.783 z" fill="#988AD7"/>
      <path d="M169.172,176.79 L205.492,213.11 L144.5,274.102 L108.18,237.783 z" fill-opacity="0" stroke="#585858" stroke-width="3"/>
    </g>
    <g>
      <path d="M-5.581,2.105 L168.908,176.594 L144.522,200.981 L-4.701,51.759 z" fill="#988AD7"/>
      <path d="M-5.581,2.105 L168.908,176.594 L144.522,200.981 L-4.701,51.759 z" fill-opacity="0" stroke="#585858" stroke-width="3"/>
    </g>
  </g>
  <g id="Green_hand" display="none">
    <g>
      <path d="M254.5,65.438 L254.5,117.635 L128.158,244.943 L150.752,268.182 L110.5,307.5 L61.566,258.566 L62.227,257.905 L62.13,257.808 z" fill="#C2D178"/>
      <path d="M254.5,65.438 L254.5,117.635 L128.158,244.943 L150.752,268.182 L110.5,307.5 L61.566,258.566 L62.227,257.905 L62.13,257.808 z" fill-opacity="0" stroke="#585858" stroke-width="3" stroke-linejoin="round"/>
    </g>
  </g>
  <g id="Green_Hand_2">
    <g>
      <path d="M291.768,5.421 L291.354,54.608 L157.294,188.668 L181.726,213.1 L144.5,250.326 L95.674,201.5 L132.9,164.274 L132.907,164.282 z" fill="#C2D178"/>
      <path d="M291.768,5.421 L291.354,54.608 L157.294,188.668 L181.726,213.1 L144.5,250.326 L95.674,201.5 L132.9,164.274 L132.907,164.282 z" fill-opacity="0" stroke="#585858" stroke-width="3"/>
    </g>
  </g>
</svg>
